<svg width="124" height="21" viewBox="0 0 124 21" fill="currentColor" xmlns="http://www.w3.org/2000/svg">
<path d="M6.312 20.264C5.88 20.264 5.444 20.232 5.004 20.168C4.572 20.104 4.172 19.984 3.804 19.808C3.436 19.624 3.14 19.36 2.916 19.016C2.692 18.672 2.58 18.216 2.58 17.648C2.58 17.36 2.608 17.04 2.664 16.688C2.728 16.336 2.808 15.94 2.904 15.5L4.056 10.136H1.104L1.716 7.256H2.592C3.064 7.256 3.448 7.232 3.744 7.184C4.04 7.128 4.272 7.016 4.44 6.848C4.616 6.672 4.76 6.404 4.872 6.044C4.992 5.684 5.112 5.196 5.232 4.58L5.544 3.056H9.276L8.4 7.256H12.096L11.484 10.136H7.788L6.804 14.72C6.716 15.176 6.644 15.54 6.588 15.812C6.54 16.084 6.516 16.32 6.516 16.52C6.516 16.792 6.576 17.008 6.696 17.168C6.824 17.32 7.052 17.396 7.38 17.396C7.644 17.396 7.908 17.372 8.172 17.324C8.436 17.276 8.632 17.228 8.76 17.18L8.16 19.976C7.976 20.048 7.72 20.112 7.392 20.168C7.072 20.232 6.712 20.264 6.312 20.264ZM10.5198 20L13.2198 7.256H16.9158L14.2158 20H10.5198ZM15.7278 5.18C15.1838 5.18 14.7158 5.044 14.3238 4.772C13.9318 4.5 13.7358 4.112 13.7358 3.608C13.7358 3.192 13.8438 2.844 14.0598 2.564C14.2838 2.276 14.5758 2.06 14.9358 1.916C15.2958 1.764 15.6758 1.688 16.0758 1.688C16.6118 1.688 17.0758 1.824 17.4678 2.096C17.8598 2.368 18.0558 2.756 18.0558 3.26C18.0558 3.668 17.9438 4.016 17.7198 4.304C17.5038 4.592 17.2198 4.812 16.8678 4.964C16.5158 5.108 16.1358 5.18 15.7278 5.18ZM22.6371 20.288C20.7571 20.288 19.3091 19.792 18.2931 18.8C17.2771 17.8 16.7691 16.476 16.7691 14.828C16.7691 13.636 16.9731 12.56 17.3811 11.6C17.7971 10.64 18.3731 9.82 19.1091 9.14C19.8531 8.452 20.7291 7.928 21.7371 7.568C22.7531 7.2 23.8651 7.016 25.0731 7.016C26.3291 7.016 27.3691 7.244 28.1931 7.7C29.0251 8.148 29.6491 8.716 30.0651 9.404C30.4811 10.092 30.6891 10.804 30.6891 11.54C30.6891 11.692 30.6811 11.828 30.6651 11.948C30.6571 12.068 30.6451 12.164 30.6291 12.236H26.9451C26.9531 12.188 26.9571 12.144 26.9571 12.104C26.9571 12.064 26.9571 12.012 26.9571 11.948C26.9571 11.604 26.8811 11.288 26.7291 11C26.5771 10.704 26.3291 10.464 25.9851 10.28C25.6411 10.096 25.1811 10.004 24.6051 10.004C23.9811 10.004 23.4171 10.128 22.9131 10.376C22.4171 10.616 21.9891 10.948 21.6291 11.372C21.2691 11.796 20.9931 12.288 20.8011 12.848C20.6171 13.4 20.5251 13.992 20.5251 14.624C20.5251 15.472 20.7451 16.132 21.1851 16.604C21.6331 17.068 22.2531 17.3 23.0451 17.3C23.6931 17.3 24.2371 17.204 24.6771 17.012C25.1171 16.812 25.4691 16.548 25.7331 16.22C26.0051 15.884 26.2051 15.516 26.3331 15.116H30.0171C29.9131 15.74 29.6731 16.36 29.2971 16.976C28.9211 17.592 28.4171 18.148 27.7851 18.644C27.1531 19.14 26.4051 19.54 25.5411 19.844C24.6771 20.14 23.7091 20.288 22.6371 20.288ZM30.3069 20L34.2909 1.244H37.8189L35.5389 11.984L34.6029 11.576L40.4349 7.256H45.2589L37.7109 12.896L38.7909 11.504L42.3429 20H38.6109L36.0549 13.484L36.8829 13.508L34.4469 15.38L35.1549 13.784L33.8349 20H30.3069ZM44.9411 14.744L45.4451 12.284H53.8931L53.4731 12.908C53.5131 12.74 53.5451 12.584 53.5691 12.44C53.5931 12.288 53.6051 12.124 53.6051 11.948C53.6051 11.564 53.5171 11.212 53.3411 10.892C53.1651 10.564 52.8851 10.3 52.5011 10.1C52.1251 9.9 51.6291 9.8 51.0131 9.8C50.3171 9.8 49.6971 9.928 49.1531 10.184C48.6091 10.44 48.1491 10.8 47.7731 11.264C47.4051 11.72 47.1251 12.256 46.9331 12.872C46.7411 13.48 46.6451 14.14 46.6451 14.852C46.6451 15.396 46.7371 15.864 46.9211 16.256C47.1051 16.648 47.4011 16.948 47.8091 17.156C48.2251 17.364 48.7651 17.468 49.4291 17.468C49.9411 17.468 50.3891 17.424 50.7731 17.336C51.1571 17.24 51.4811 17.12 51.7451 16.976C52.0091 16.832 52.2171 16.672 52.3691 16.496C52.5291 16.32 52.6371 16.148 52.6931 15.98H56.3771C56.2331 16.516 55.9651 17.044 55.5731 17.564C55.1811 18.076 54.6731 18.54 54.0491 18.956C53.4251 19.364 52.6931 19.688 51.8531 19.928C51.0131 20.168 50.0651 20.288 49.0091 20.288C47.7531 20.288 46.6811 20.056 45.7931 19.592C44.9131 19.128 44.2411 18.488 43.7771 17.672C43.3131 16.848 43.0811 15.9 43.0811 14.828C43.0811 13.7 43.2891 12.66 43.7051 11.708C44.1291 10.756 44.7131 9.928 45.4571 9.224C46.2091 8.52 47.0811 7.976 48.0731 7.592C49.0651 7.208 50.1331 7.016 51.2771 7.016C52.5091 7.016 53.5651 7.24 54.4451 7.688C55.3251 8.128 55.9971 8.744 56.4611 9.536C56.9331 10.328 57.1691 11.256 57.1691 12.32C57.1691 12.688 57.1331 13.104 57.0611 13.568C56.9891 14.032 56.8971 14.424 56.7851 14.744H44.9411ZM63.1401 20.264C62.7081 20.264 62.2721 20.232 61.8321 20.168C61.4001 20.104 61.0001 19.984 60.6321 19.808C60.2641 19.624 59.9681 19.36 59.7441 19.016C59.5201 18.672 59.4081 18.216 59.4081 17.648C59.4081 17.36 59.4361 17.04 59.4921 16.688C59.5561 16.336 59.6361 15.94 59.7321 15.5L60.8841 10.136H57.9321L58.5441 7.256H59.4201C59.8921 7.256 60.2761 7.232 60.5721 7.184C60.8681 7.128 61.1001 7.016 61.2681 6.848C61.4441 6.672 61.5881 6.404 61.7001 6.044C61.8201 5.684 61.9401 5.196 62.0601 4.58L62.3721 3.056H66.1041L65.2281 7.256H68.9241L68.3121 10.136H64.6161L63.6321 14.72C63.5441 15.176 63.4721 15.54 63.4161 15.812C63.3681 16.084 63.3441 16.32 63.3441 16.52C63.3441 16.792 63.4041 17.008 63.5241 17.168C63.6521 17.32 63.8801 17.396 64.2081 17.396C64.4721 17.396 64.7361 17.372 65.0001 17.324C65.2641 17.276 65.4601 17.228 65.5881 17.18L64.9881 19.976C64.8041 20.048 64.5481 20.112 64.2201 20.168C63.9001 20.232 63.5401 20.264 63.1401 20.264Z" fill="white"/>
<path d="M75.612 20.216C74.836 20.216 74.144 20.14 73.536 19.988C72.928 19.828 72.408 19.6 71.976 19.304C71.552 19.008 71.224 18.644 70.992 18.212C70.76 17.78 70.628 17.292 70.596 16.748C70.596 16.668 70.596 16.584 70.596 16.496C70.596 16.408 70.596 16.332 70.596 16.268H71.52C71.52 16.332 71.52 16.404 71.52 16.484C71.52 16.564 71.524 16.644 71.532 16.724C71.572 17.564 71.944 18.216 72.648 18.68C73.36 19.144 74.348 19.376 75.612 19.376C76.436 19.376 77.156 19.276 77.772 19.076C78.388 18.868 78.864 18.576 79.2 18.2C79.544 17.816 79.716 17.356 79.716 16.82C79.716 15.94 79.356 15.312 78.636 14.936C77.924 14.552 76.888 14.244 75.528 14.012C74.848 13.884 74.216 13.736 73.632 13.568C73.056 13.392 72.556 13.168 72.132 12.896C71.716 12.624 71.392 12.288 71.16 11.888C70.928 11.488 70.812 11.004 70.812 10.436C70.812 9.716 71.028 9.108 71.46 8.612C71.9 8.116 72.48 7.74 73.2 7.484C73.928 7.22 74.724 7.088 75.588 7.088C76.468 7.088 77.272 7.216 78 7.472C78.728 7.72 79.308 8.112 79.74 8.648C80.18 9.176 80.4 9.856 80.4 10.688C80.4 10.728 80.4 10.776 80.4 10.832C80.4 10.88 80.4 10.924 80.4 10.964H79.476C79.476 10.924 79.476 10.884 79.476 10.844C79.476 10.796 79.476 10.752 79.476 10.712C79.476 10.024 79.296 9.476 78.936 9.068C78.576 8.66 78.104 8.368 77.52 8.192C76.936 8.016 76.304 7.928 75.624 7.928C74.944 7.928 74.308 8.016 73.716 8.192C73.124 8.368 72.644 8.64 72.276 9.008C71.908 9.376 71.724 9.844 71.724 10.412C71.724 10.996 71.896 11.468 72.24 11.828C72.584 12.18 73.064 12.46 73.68 12.668C74.296 12.876 75.016 13.056 75.84 13.208C76.584 13.344 77.252 13.504 77.844 13.688C78.436 13.872 78.94 14.1 79.356 14.372C79.772 14.636 80.088 14.964 80.304 15.356C80.528 15.748 80.64 16.224 80.64 16.784C80.64 17.336 80.516 17.824 80.268 18.248C80.02 18.672 79.672 19.032 79.224 19.328C78.776 19.616 78.244 19.836 77.628 19.988C77.02 20.14 76.348 20.216 75.612 20.216ZM84.5902 1.244V20H83.6782V1.244H84.5902ZM92.4546 20.216C91.4546 20.216 90.5906 20.072 89.8626 19.784C89.1426 19.496 88.5866 19.076 88.1946 18.524C87.8026 17.964 87.6066 17.284 87.6066 16.484C87.6066 15.692 87.8066 15.036 88.2066 14.516C88.6066 13.996 89.1866 13.588 89.9466 13.292C90.7066 12.996 91.6226 12.796 92.6946 12.692C94.3746 12.524 95.5906 12.344 96.3426 12.152C97.0946 11.96 97.4706 11.66 97.4706 11.252C97.4706 11.196 97.4706 11.144 97.4706 11.096C97.4706 11.04 97.4706 10.988 97.4706 10.94C97.4706 10.028 97.0986 9.3 96.3546 8.756C95.6106 8.212 94.5626 7.94 93.2106 7.94C91.8106 7.94 90.7146 8.244 89.9226 8.852C89.1306 9.452 88.7346 10.308 88.7346 11.42H87.8106C87.8106 10.516 88.0306 9.744 88.4706 9.104C88.9186 8.456 89.5466 7.96 90.3546 7.616C91.1706 7.264 92.1226 7.088 93.2106 7.088C94.2026 7.088 95.0866 7.24 95.8626 7.544C96.6466 7.848 97.2626 8.292 97.7106 8.876C98.1666 9.452 98.3946 10.152 98.3946 10.976C98.3946 11.136 98.3946 11.3 98.3946 11.468C98.3946 11.636 98.3946 11.8 98.3946 11.96V17.888C98.3946 18.144 98.4066 18.392 98.4306 18.632C98.4546 18.864 98.4946 19.068 98.5506 19.244C98.6146 19.452 98.6786 19.62 98.7426 19.748C98.8146 19.868 98.8706 19.952 98.9106 20H97.9866C97.9466 19.968 97.8946 19.892 97.8306 19.772C97.7666 19.644 97.7066 19.484 97.6506 19.292C97.5786 19.06 97.5306 18.816 97.5066 18.56C97.4826 18.296 97.4706 17.948 97.4706 17.516L97.6146 17.648C97.3666 18.16 96.9906 18.612 96.4866 19.004C95.9826 19.388 95.3866 19.688 94.6986 19.904C94.0106 20.112 93.2626 20.216 92.4546 20.216ZM92.5866 19.376C93.4906 19.376 94.3106 19.22 95.0466 18.908C95.7826 18.596 96.3706 18.156 96.8106 17.588C97.2506 17.012 97.4706 16.34 97.4706 15.572V12.128L97.6506 12.476C97.2426 12.74 96.6146 12.948 95.7666 13.1C94.9266 13.252 93.9866 13.38 92.9466 13.484C91.5146 13.62 90.4186 13.912 89.6586 14.36C88.9066 14.8 88.5306 15.5 88.5306 16.46C88.5306 17.388 88.8786 18.108 89.5746 18.62C90.2706 19.124 91.2746 19.376 92.5866 19.376ZM109.779 7.256L105.219 20H104.103L99.4706 7.256H100.431L104.739 19.328H104.583L108.819 7.256H109.779ZM111.293 14.048V13.22H122.081L121.853 13.436C121.853 13.388 121.853 13.348 121.853 13.316C121.853 13.284 121.853 13.252 121.853 13.22C121.853 12.3 121.657 11.44 121.265 10.64C120.873 9.832 120.309 9.18 119.573 8.684C118.845 8.18 117.969 7.928 116.945 7.928C115.913 7.928 114.997 8.18 114.197 8.684C113.397 9.188 112.769 9.872 112.313 10.736C111.857 11.6 111.629 12.572 111.629 13.652C111.629 14.764 111.857 15.752 112.313 16.616C112.769 17.472 113.397 18.148 114.197 18.644C115.005 19.132 115.921 19.376 116.945 19.376C117.745 19.376 118.437 19.264 119.021 19.04C119.605 18.808 120.089 18.516 120.473 18.164C120.857 17.812 121.149 17.444 121.349 17.06C121.557 16.676 121.677 16.324 121.709 16.004H122.645C122.605 16.436 122.457 16.896 122.201 17.384C121.945 17.872 121.581 18.332 121.109 18.764C120.637 19.188 120.053 19.536 119.357 19.808C118.661 20.08 117.853 20.216 116.933 20.216C115.741 20.216 114.677 19.94 113.741 19.388C112.813 18.828 112.077 18.056 111.533 17.072C110.997 16.088 110.729 14.956 110.729 13.676C110.729 12.388 110.997 11.252 111.533 10.268C112.077 9.276 112.817 8.5 113.753 7.94C114.689 7.372 115.753 7.088 116.945 7.088C118.145 7.088 119.185 7.38 120.065 7.964C120.945 8.54 121.625 9.312 122.105 10.28C122.593 11.248 122.837 12.316 122.837 13.484C122.837 13.564 122.833 13.664 122.825 13.784C122.825 13.904 122.821 13.992 122.813 14.048H111.293Z" fill="white"/>
</svg>
