<svg width="124" height="21" viewBox="0 0 124 21" fill="none" xmlns="http://www.w3.org/2000/svg">
<path d="M6.312 20.264C5.88 20.264 5.444 20.232 5.004 20.168C4.572 20.104 4.172 19.984 3.804 19.808C3.436 19.624 3.14 19.36 2.916 19.016C2.692 18.672 2.58 18.216 2.58 17.648C2.58 17.36 2.608 17.04 2.664 16.688C2.728 16.336 2.808 15.94 2.904 15.5L4.056 10.136H1.104L1.716 7.25602H2.592C3.064 7.25602 3.448 7.23202 3.744 7.18402C4.04 7.12802 4.272 7.01602 4.44 6.84802C4.616 6.67202 4.76 6.40402 4.872 6.04402C4.992 5.68402 5.112 5.19602 5.232 4.58002L5.544 3.05602H9.276L8.4 7.25602H12.096L11.484 10.136H7.788L6.804 14.72C6.716 15.176 6.644 15.54 6.588 15.812C6.54 16.084 6.516 16.32 6.516 16.52C6.516 16.792 6.576 17.008 6.696 17.168C6.824 17.32 7.052 17.396 7.38 17.396C7.644 17.396 7.908 17.372 8.172 17.324C8.436 17.276 8.632 17.228 8.76 17.18L8.16 19.976C7.976 20.048 7.72 20.112 7.392 20.168C7.072 20.232 6.712 20.264 6.312 20.264ZM10.5198 20L13.2198 7.25602H16.9158L14.2158 20H10.5198ZM15.7278 5.18002C15.1838 5.18002 14.7158 5.04402 14.3238 4.77202C13.9318 4.50002 13.7358 4.11202 13.7358 3.60802C13.7358 3.19202 13.8438 2.84402 14.0598 2.56402C14.2838 2.27602 14.5758 2.06002 14.9358 1.91602C15.2958 1.76402 15.6758 1.68802 16.0758 1.68802C16.6118 1.68802 17.0758 1.82402 17.4678 2.09602C17.8598 2.36802 18.0558 2.75602 18.0558 3.26002C18.0558 3.66802 17.9438 4.01602 17.7198 4.30402C17.5038 4.59202 17.2198 4.81202 16.8678 4.96402C16.5158 5.10802 16.1358 5.18002 15.7278 5.18002ZM22.6371 20.288C20.7571 20.288 19.3091 19.792 18.2931 18.8C17.2771 17.8 16.7691 16.476 16.7691 14.828C16.7691 13.636 16.9731 12.56 17.3811 11.6C17.7971 10.64 18.3731 9.82002 19.1091 9.14002C19.8531 8.45202 20.7291 7.92802 21.7371 7.56802C22.7531 7.20002 23.8651 7.01602 25.0731 7.01602C26.3291 7.01602 27.3691 7.24402 28.1931 7.70002C29.0251 8.14802 29.6491 8.71602 30.0651 9.40402C30.4811 10.092 30.6891 10.804 30.6891 11.54C30.6891 11.692 30.6811 11.828 30.6651 11.948C30.6571 12.068 30.6451 12.164 30.6291 12.236H26.9451C26.9531 12.188 26.9571 12.144 26.9571 12.104C26.9571 12.064 26.9571 12.012 26.9571 11.948C26.9571 11.604 26.8811 11.288 26.7291 11C26.5771 10.704 26.3291 10.464 25.9851 10.28C25.6411 10.096 25.1811 10.004 24.6051 10.004C23.9811 10.004 23.4171 10.128 22.9131 10.376C22.4171 10.616 21.9891 10.948 21.6291 11.372C21.2691 11.796 20.9931 12.288 20.8011 12.848C20.6171 13.4 20.5251 13.992 20.5251 14.624C20.5251 15.472 20.7451 16.132 21.1851 16.604C21.6331 17.068 22.2531 17.3 23.0451 17.3C23.6931 17.3 24.2371 17.204 24.6771 17.012C25.1171 16.812 25.4691 16.548 25.7331 16.22C26.0051 15.884 26.2051 15.516 26.3331 15.116H30.0171C29.9131 15.74 29.6731 16.36 29.2971 16.976C28.9211 17.592 28.4171 18.148 27.7851 18.644C27.1531 19.14 26.4051 19.54 25.5411 19.844C24.6771 20.14 23.7091 20.288 22.6371 20.288ZM30.3069 20L34.2909 1.24402H37.8189L35.5389 11.984L34.6029 11.576L40.4349 7.25602H45.2589L37.7109 12.896L38.7909 11.504L42.3429 20H38.6109L36.0549 13.484L36.8829 13.508L34.4469 15.38L35.1549 13.784L33.8349 20H30.3069ZM44.9411 14.744L45.4451 12.284H53.8931L53.4731 12.908C53.5131 12.74 53.5451 12.584 53.5691 12.44C53.5931 12.288 53.6051 12.124 53.6051 11.948C53.6051 11.564 53.5171 11.212 53.3411 10.892C53.1651 10.564 52.8851 10.3 52.5011 10.1C52.1251 9.90002 51.6291 9.80002 51.0131 9.80002C50.3171 9.80002 49.6971 9.92802 49.1531 10.184C48.6091 10.44 48.1491 10.8 47.7731 11.264C47.4051 11.72 47.1251 12.256 46.9331 12.872C46.7411 13.48 46.6451 14.14 46.6451 14.852C46.6451 15.396 46.7371 15.864 46.9211 16.256C47.1051 16.648 47.4011 16.948 47.8091 17.156C48.2251 17.364 48.7651 17.468 49.4291 17.468C49.9411 17.468 50.3891 17.424 50.7731 17.336C51.1571 17.24 51.4811 17.12 51.7451 16.976C52.0091 16.832 52.2171 16.672 52.3691 16.496C52.5291 16.32 52.6371 16.148 52.6931 15.98H56.3771C56.2331 16.516 55.9651 17.044 55.5731 17.564C55.1811 18.076 54.6731 18.54 54.0491 18.956C53.4251 19.364 52.6931 19.688 51.8531 19.928C51.0131 20.168 50.0651 20.288 49.0091 20.288C47.7531 20.288 46.6811 20.056 45.7931 19.592C44.9131 19.128 44.2411 18.488 43.7771 17.672C43.3131 16.848 43.0811 15.9 43.0811 14.828C43.0811 13.7 43.2891 12.66 43.7051 11.708C44.1291 10.756 44.7131 9.92802 45.4571 9.22402C46.2091 8.52002 47.0811 7.97602 48.0731 7.59202C49.0651 7.20802 50.1331 7.01602 51.2771 7.01602C52.5091 7.01602 53.5651 7.24002 54.4451 7.68802C55.3251 8.12802 55.9971 8.74402 56.4611 9.53602C56.9331 10.328 57.1691 11.256 57.1691 12.32C57.1691 12.688 57.1331 13.104 57.0611 13.568C56.9891 14.032 56.8971 14.424 56.7851 14.744H44.9411ZM63.1401 20.264C62.7081 20.264 62.2721 20.232 61.8321 20.168C61.4001 20.104 61.0001 19.984 60.6321 19.808C60.2641 19.624 59.9681 19.36 59.7441 19.016C59.5201 18.672 59.4081 18.216 59.4081 17.648C59.4081 17.36 59.4361 17.04 59.4921 16.688C59.5561 16.336 59.6361 15.94 59.7321 15.5L60.8841 10.136H57.9321L58.5441 7.25602H59.4201C59.8921 7.25602 60.2761 7.23202 60.5721 7.18402C60.8681 7.12802 61.1001 7.01602 61.2681 6.84802C61.4441 6.67202 61.5881 6.40402 61.7001 6.04402C61.8201 5.68402 61.9401 5.19602 62.0601 4.58002L62.3721 3.05602H66.1041L65.2281 7.25602H68.9241L68.3121 10.136H64.6161L63.6321 14.72C63.5441 15.176 63.4721 15.54 63.4161 15.812C63.3681 16.084 63.3441 16.32 63.3441 16.52C63.3441 16.792 63.4041 17.008 63.5241 17.168C63.6521 17.32 63.8801 17.396 64.2081 17.396C64.4721 17.396 64.7361 17.372 65.0001 17.324C65.2641 17.276 65.4601 17.228 65.5881 17.18L64.9881 19.976C64.8041 20.048 64.5481 20.112 64.2201 20.168C63.9001 20.232 63.5401 20.264 63.1401 20.264Z" fill="#191919"/>
<path d="M75.6119 20.216C74.8359 20.216 74.1439 20.14 73.5359 19.988C72.9279 19.828 72.4079 19.6 71.9759 19.304C71.5519 19.008 71.2239 18.644 70.9919 18.212C70.7599 17.78 70.6279 17.292 70.5959 16.748C70.5959 16.668 70.5959 16.584 70.5959 16.496C70.5959 16.408 70.5959 16.332 70.5959 16.268H71.5199C71.5199 16.332 71.5199 16.404 71.5199 16.484C71.5199 16.564 71.5239 16.644 71.5319 16.724C71.5719 17.564 71.9439 18.216 72.6479 18.68C73.3599 19.144 74.3479 19.376 75.6119 19.376C76.4359 19.376 77.1559 19.276 77.7719 19.076C78.3879 18.868 78.8639 18.576 79.1999 18.2C79.5439 17.816 79.716 17.356 79.716 16.82C79.716 15.94 79.3559 15.312 78.6359 14.936C77.9239 14.552 76.8879 14.244 75.5279 14.012C74.8479 13.884 74.216 13.736 73.632 13.568C73.056 13.392 72.556 13.168 72.132 12.896C71.716 12.624 71.392 12.288 71.16 11.888C70.928 11.488 70.8119 11.004 70.8119 10.436C70.8119 9.71602 71.0279 9.10802 71.4599 8.61202C71.8999 8.11602 72.4799 7.74002 73.1999 7.48402C73.9279 7.22002 74.7239 7.08802 75.5879 7.08802C76.4679 7.08802 77.2719 7.21602 77.9999 7.47202C78.7279 7.72002 79.3079 8.11202 79.7399 8.64802C80.1799 9.17602 80.3999 9.85602 80.3999 10.688C80.3999 10.728 80.3999 10.776 80.3999 10.832C80.3999 10.88 80.3999 10.924 80.3999 10.964H79.4759C79.4759 10.924 79.4759 10.884 79.4759 10.844C79.4759 10.796 79.4759 10.752 79.4759 10.712C79.4759 10.024 79.2959 9.47602 78.9359 9.06802C78.5759 8.66002 78.1039 8.36802 77.5199 8.19202C76.9359 8.01602 76.3039 7.92802 75.6239 7.92802C74.9439 7.92802 74.308 8.01602 73.716 8.19202C73.124 8.36802 72.6439 8.64002 72.2759 9.00802C71.9079 9.37602 71.7239 9.84402 71.7239 10.412C71.7239 10.996 71.8959 11.468 72.2399 11.828C72.5839 12.18 73.0639 12.46 73.6799 12.668C74.2959 12.876 75.0159 13.056 75.8399 13.208C76.5839 13.344 77.2519 13.504 77.8439 13.688C78.4359 13.872 78.9399 14.1 79.3559 14.372C79.7719 14.636 80.0879 14.964 80.3039 15.356C80.5279 15.748 80.6399 16.224 80.6399 16.784C80.6399 17.336 80.5159 17.824 80.2679 18.248C80.0199 18.672 79.6719 19.032 79.2239 19.328C78.7759 19.616 78.2439 19.836 77.6279 19.988C77.0199 20.14 76.3479 20.216 75.6119 20.216ZM84.5901 1.24402V20H83.6781V1.24402H84.5901ZM92.4545 20.216C91.4545 20.216 90.5905 20.072 89.8625 19.784C89.1425 19.496 88.5865 19.076 88.1945 18.524C87.8025 17.964 87.6065 17.284 87.6065 16.484C87.6065 15.692 87.8065 15.036 88.2065 14.516C88.6065 13.996 89.1865 13.588 89.9465 13.292C90.7065 12.996 91.6225 12.796 92.6945 12.692C94.3745 12.524 95.5905 12.344 96.3425 12.152C97.0945 11.96 97.4705 11.66 97.4705 11.252C97.4705 11.196 97.4705 11.144 97.4705 11.096C97.4705 11.04 97.4705 10.988 97.4705 10.94C97.4705 10.028 97.0985 9.30002 96.3545 8.75602C95.6105 8.21202 94.5625 7.94002 93.2105 7.94002C91.8105 7.94002 90.7145 8.24402 89.9225 8.85202C89.1305 9.45202 88.7345 10.308 88.7345 11.42H87.8105C87.8105 10.516 88.0305 9.74402 88.4705 9.10402C88.9185 8.45602 89.5465 7.96002 90.3545 7.61602C91.1705 7.26402 92.1225 7.08802 93.2105 7.08802C94.2025 7.08802 95.0865 7.24002 95.8625 7.54402C96.6465 7.84802 97.2625 8.29202 97.7105 8.87602C98.1665 9.45202 98.3945 10.152 98.3945 10.976C98.3945 11.136 98.3945 11.3 98.3945 11.468C98.3945 11.636 98.3945 11.8 98.3945 11.96V17.888C98.3945 18.144 98.4065 18.392 98.4305 18.632C98.4545 18.864 98.4945 19.068 98.5505 19.244C98.6145 19.452 98.6785 19.62 98.7425 19.748C98.8145 19.868 98.8705 19.952 98.9105 20H97.9865C97.9465 19.968 97.8945 19.892 97.8305 19.772C97.7665 19.644 97.7065 19.484 97.6505 19.292C97.5785 19.06 97.5305 18.816 97.5065 18.56C97.4825 18.296 97.4705 17.948 97.4705 17.516L97.6145 17.648C97.3665 18.16 96.9905 18.612 96.4865 19.004C95.9825 19.388 95.3865 19.688 94.6985 19.904C94.0105 20.112 93.2625 20.216 92.4545 20.216ZM92.5865 19.376C93.4905 19.376 94.3105 19.22 95.0465 18.908C95.7825 18.596 96.3705 18.156 96.8105 17.588C97.2505 17.012 97.4705 16.34 97.4705 15.572V12.128L97.6505 12.476C97.2425 12.74 96.6145 12.948 95.7665 13.1C94.9265 13.252 93.9865 13.38 92.9465 13.484C91.5145 13.62 90.4185 13.912 89.6585 14.36C88.9065 14.8 88.5305 15.5 88.5305 16.46C88.5305 17.388 88.8785 18.108 89.5745 18.62C90.2705 19.124 91.2745 19.376 92.5865 19.376ZM109.779 7.25602L105.219 20H104.103L99.4705 7.25602H100.431L104.739 19.328H104.583L108.819 7.25602H109.779ZM111.293 14.048V13.22H122.081L121.853 13.436C121.853 13.388 121.853 13.348 121.853 13.316C121.853 13.284 121.853 13.252 121.853 13.22C121.853 12.3 121.657 11.44 121.265 10.64C120.873 9.83202 120.309 9.18002 119.573 8.68402C118.845 8.18002 117.969 7.92802 116.945 7.92802C115.913 7.92802 114.997 8.18002 114.197 8.68402C113.397 9.18802 112.769 9.87202 112.313 10.736C111.857 11.6 111.629 12.572 111.629 13.652C111.629 14.764 111.857 15.752 112.313 16.616C112.769 17.472 113.397 18.148 114.197 18.644C115.005 19.132 115.921 19.376 116.945 19.376C117.745 19.376 118.437 19.264 119.021 19.04C119.605 18.808 120.089 18.516 120.473 18.164C120.857 17.812 121.149 17.444 121.349 17.06C121.557 16.676 121.677 16.324 121.709 16.004H122.645C122.605 16.436 122.457 16.896 122.201 17.384C121.945 17.872 121.581 18.332 121.109 18.764C120.637 19.188 120.053 19.536 119.357 19.808C118.661 20.08 117.853 20.216 116.933 20.216C115.741 20.216 114.677 19.94 113.741 19.388C112.813 18.828 112.077 18.056 111.533 17.072C110.997 16.088 110.729 14.956 110.729 13.676C110.729 12.388 110.997 11.252 111.533 10.268C112.077 9.27602 112.817 8.50002 113.753 7.94002C114.689 7.37202 115.753 7.08802 116.945 7.08802C118.145 7.08802 119.185 7.38002 120.065 7.96402C120.945 8.54002 121.625 9.31202 122.105 10.28C122.593 11.248 122.837 12.316 122.837 13.484C122.837 13.564 122.833 13.664 122.825 13.784C122.825 13.904 122.821 13.992 122.813 14.048H111.293Z" fill="#191919"/>
</svg>
